TITLE ""
FILE "Step2_Track39.mp3" MP3
  TRACK 01 AUDIO
    TITLE "Step2_Track39_01"
    INDEX 01 00:00:00
  TRACK 02 AUDIO
    TITLE "Step2_Track39_02"
    INDEX 01 00:00:22
  TRACK 03 AUDIO
    TITLE "Step2_Track39_03"
    INDEX 01 00:01:74
  TRACK 04 AUDIO
    TITLE "Step2_Track39_04"
    INDEX 01 00:02:60
  TRACK 05 AUDIO
    TITLE "Step2_Track39_05"
    INDEX 01 00:03:56
  TRACK 06 AUDIO
    TITLE "Step2_Track39_06"
    INDEX 01 00:04:08
  TRACK 07 AUDIO
    TITLE "Step2_Track39_07"
    INDEX 01 00:07:12
  TRACK 08 AUDIO
    TITLE "Step2_Track39_08"
    INDEX 01 00:07:28
  TRACK 09 AUDIO
    TITLE "Step2_Track39_09"
    INDEX 01 00:08:27
  TRACK 10 AUDIO
    TITLE "Step2_Track39_10"
    INDEX 01 00:08:29
  TRACK 11 AUDIO
    TITLE "Step2_Track39_11"
    INDEX 01 00:11:24
  TRACK 12 AUDIO
    TITLE "Step2_Track39_12"
    INDEX 01 00:11:45
  TRACK 13 AUDIO
    TITLE "Step2_Track39_13"
    INDEX 01 00:12:47
  TRACK 14 AUDIO
    TITLE "Step2_Track39_14"
    INDEX 01 00:12:55
  TRACK 15 AUDIO
    TITLE "Step2_Track39_15"
    INDEX 01 00:15:57
  TRACK 16 AUDIO
    TITLE "Step2_Track39_16"
    INDEX 01 00:16:05
  TRACK 17 AUDIO
    TITLE "Step2_Track39_17"
    INDEX 01 00:17:05
  TRACK 18 AUDIO
    TITLE "Step2_Track39_18"
    INDEX 01 00:17:11
  TRACK 19 AUDIO
    TITLE "Step2_Track39_19"
    INDEX 01 00:19:74
  TRACK 20 AUDIO
    TITLE "Step2_Track39_20"
    INDEX 01 00:20:19
  TRACK 21 AUDIO
    TITLE "Step2_Track39_21"
    INDEX 01 00:21:14
  TRACK 22 AUDIO
    TITLE "Step2_Track39_22"
    INDEX 01 00:21:34
  TRACK 23 AUDIO
    TITLE "Step2_Track39_23"
    INDEX 01 00:24:36
  TRACK 24 AUDIO
    TITLE "Step2_Track39_24"
    INDEX 01 00:24:46
  TRACK 25 AUDIO
    TITLE "Step2_Track39_25"
    INDEX 01 00:25:49
  TRACK 26 AUDIO
    TITLE "Step2_Track39_26"
    INDEX 01 00:25:59
  TRACK 27 AUDIO
    TITLE "Step2_Track39_27"
    INDEX 01 00:29:28
  TRACK 28 AUDIO
    TITLE "Step2_Track39_28"
    INDEX 01 00:29:41
  TRACK 29 AUDIO
    TITLE "Step2_Track39_29"
    INDEX 01 00:30:43
  TRACK 30 AUDIO
    TITLE "Step2_Track39_30"
    INDEX 01 00:30:58
  TRACK 31 AUDIO
    TITLE "Step2_Track39_31"
    INDEX 01 00:33:27
  TRACK 32 AUDIO
    TITLE "Step2_Track39_32"
    INDEX 01 00:33:59
  TRACK 33 AUDIO
    TITLE "Step2_Track39_33"
    INDEX 01 00:34:39
  TRACK 34 AUDIO
    TITLE "Step2_Track39_34"
    INDEX 01 00:34:62
  TRACK 35 AUDIO
    TITLE "Step2_Track39_35"
    INDEX 01 00:38:30
  TRACK 36 AUDIO
    TITLE "Step2_Track39_36"
    INDEX 01 00:38:48
  TRACK 37 AUDIO
    TITLE "Step2_Track39_37"
    INDEX 01 00:39:51
  TRACK 38 AUDIO
    TITLE "Step2_Track39_38"
    INDEX 01 00:39:65
  TRACK 39 AUDIO
    TITLE "Step2_Track39_39"
    INDEX 01 00:42:09
  TRACK 40 AUDIO
    TITLE "Step2_Track39_40"
    INDEX 01 00:42:34
  TRACK 41 AUDIO
    TITLE "Step2_Track39_41"
    INDEX 01 00:43:34
  TRACK 42 AUDIO
    TITLE "Step2_Track39_42"
    INDEX 01 00:43:49
  TRACK 43 AUDIO
    TITLE "Step2_Track39_43"
    INDEX 01 00:46:61
